HIERARCHY
ROOT joint_Root
{
	OFFSET 0.0 0.0 0.0
	CHANNELS 6 Xposition Yposition Zposition Zrotation Xrotation Yrotation 
	JOINT Hips
	{
		OFFSET 4.5925 91.4895 -427.239
		CHANNELS 6 Xposition Yposition Zposition Zrotation Xrotation Yrotation 
		JOINT Spine
		{
			OFFSET 15.7357 0.0 0.0
			CHANNELS 6 Xposition Yposition Zposition Zrotation Xrotation Yrotation 
			JOINT Chest
			{
				OFFSET 8.98455 -0.406207 0.0
				CHANNELS 6 Xposition Yposition Zposition Zrotation Xrotation Yrotation 
				JOINT Neck
				{
					OFFSET 16.3773 0.0 0.0
					CHANNELS 6 Xposition Yposition Zposition Zrotation Xrotation Yrotation 
					JOINT Head
					{
						OFFSET 6.45672 0.0 0.0
						CHANNELS 6 Xposition Yposition Zposition Zrotation Xrotation Yrotation 
						End Site
						{
							OFFSET 0.0 0.0 0.0
						}
					}
				}
				JOINT Shoulder_L
				{
					OFFSET 12.9942 -0.242716 4.98039
					CHANNELS 6 Xposition Yposition Zposition Zrotation Xrotation Yrotation 
					JOINT UpperArm_L
					{
						OFFSET 5.34809 0.0 0.0
						CHANNELS 6 Xposition Yposition Zposition Zrotation Xrotation Yrotation 
						JOINT LowerArm_L
						{
							OFFSET 24.3286 1.87007e-05 0.0
							CHANNELS 6 Xposition Yposition Zposition Zrotation Xrotation Yrotation 
							JOINT Hand_L
							{
								OFFSET 22.2916 0.0 0.0
								CHANNELS 6 Xposition Yposition Zposition Zrotation Xrotation Yrotation 
								End Site
								{
									OFFSET 0.0 0.0 0.0
								}
							}
						}
					}
				}
				JOINT Shoulder_R
				{
					OFFSET 12.9945 -0.242716 -4.98039
					CHANNELS 6 Xposition Yposition Zposition Zrotation Xrotation Yrotation 
					JOINT UpperArm_R
					{
						OFFSET -5.34813 0.0 0.0
						CHANNELS 6 Xposition Yposition Zposition Zrotation Xrotation Yrotation 
						JOINT LowerArm_R
						{
							OFFSET -24.3289 0.000322201 0.0
							CHANNELS 6 Xposition Yposition Zposition Zrotation Xrotation Yrotation 
							JOINT Hand_R
							{
								OFFSET -22.2915 -0.000108084 0.0
								CHANNELS 6 Xposition Yposition Zposition Zrotation Xrotation Yrotation 
								End Site
								{
									OFFSET 0.0 0.0 0.0
								}
							}
						}
					}
				}
			}
		}
		JOINT UpperLeg_L
		{
			OFFSET -2.19248 -6.46944 0.0
			CHANNELS 6 Xposition Yposition Zposition Zrotation Xrotation Yrotation 
			JOINT LowerLeg_L
			{
				OFFSET 39.0811 0.0 -1.23785e-05
				CHANNELS 6 Xposition Yposition Zposition Zrotation Xrotation Yrotation 
				JOINT Foot_L
				{
					OFFSET 40.9854 0.0 -1.26872e-05
					CHANNELS 6 Xposition Yposition Zposition Zrotation Xrotation Yrotation 
					JOINT Toes_L
					{
						OFFSET 11.7543 0.0 0.0
						CHANNELS 6 Xposition Yposition Zposition Zrotation Xrotation Yrotation 
						End Site
						{
							OFFSET 0.0 0.0 0.0
						}
					}
				}
			}
		}
		JOINT UpperLeg_R
		{
			OFFSET -2.19251 6.46944 0.0
			CHANNELS 6 Xposition Yposition Zposition Zrotation Xrotation Yrotation 
			JOINT LowerLeg_R
			{
				OFFSET -39.0811 -0.00228153 -0.0401928
				CHANNELS 6 Xposition Yposition Zposition Zrotation Xrotation Yrotation 
				JOINT Foot_R
				{
					OFFSET -40.9854 0.0 0.0
					CHANNELS 6 Xposition Yposition Zposition Zrotation Xrotation Yrotation 
					JOINT Toes_R
					{
						OFFSET -11.7543 0.0 0.0
						CHANNELS 6 Xposition Yposition Zposition Zrotation Xrotation Yrotation 
						End Site
						{
							OFFSET 0.0 0.0 0.0
						}
					}
				}
			}
		}
	}
}
MOTION
Frames:	8
Frame Time:	0.0333333
0.000000 0.000000 0.000000 0.000000 0.000000 -0.000000 -1.413540 90.928600 0.883482 90.070900 -2.563340 7.397660 15.735700 0.000005 -0.000001 85.116500 82.983000 -84.773000 8.984550 -0.406207 -0.000000 6.221770 -1.195970 0.751148 16.377300 -0.000001 -0.000001 0.608083 -4.003520 3.628850 6.456720 -0.000001 -0.000000 -11.062000 -2.893230 4.245770 12.994200 -0.242716 4.980390 -91.968000 7.008780 -74.273000 5.348090 -0.000007 -0.000001 -59.989300 39.472100 -17.129500 24.328600 0.000019 0.000005 8.751540 21.368400 -22.903500 22.291600 -0.000001 0.000005 7.776680 5.347820 -1.312040 12.994500 -0.242716 -4.980390 88.518200 11.594900 -82.666000 -5.348130 -0.000001 -0.000004 -60.689400 34.579800 -12.019800 -24.328900 0.000322 -0.000009 1.292320 3.711200 -19.229100 -22.291500 -0.000108 -0.000004 12.350400 5.432540 -4.026770 -2.192480 -6.469440 -0.000000 -174.636000 -14.745900 -1.301500 39.081100 -0.000007 -0.000012 -0.186899 0.333160 29.292200 40.985400 -0.000006 -0.000013 -0.087273 6.816170 -70.089200 11.754300 -0.000000 0.000003 -0.000095 -0.000988 -16.615500 -2.192510 6.469440 -0.000001 173.935000 24.101500 -179.286000 -39.081100 -0.002282 -0.040193 -0.203015 0.374746 28.835600 -40.985400 0.000008 0.000006 3.742180 13.812600 -71.609000 -11.754300 -0.000006 -0.000006 -0.001385 -0.020732 -17.416100
0.000000 0.000000 0.000000 0.000000 0.000000 -0.000000 -1.462640 90.907100 0.962900 90.061200 -2.472400 7.497540 15.735700 0.000005 -0.000001 85.032800 82.958700 -84.668200 8.984550 -0.406207 -0.000000 6.268860 -1.220620 0.795136 16.377300 -0.000001 -0.000001 0.828143 -4.254240 3.675820 6.456720 -0.000001 -0.000000 -10.817200 -3.341490 4.663880 12.994200 -0.242716 4.980390 -92.030800 7.187700 -74.177700 5.348090 -0.000007 -0.000001 -59.368400 37.168800 -17.497300 24.328600 0.000019 0.000005 9.541870 22.028700 -24.139700 22.291600 -0.000001 0.000005 7.485390 5.354790 -1.521380 12.994500 -0.242716 -4.980390 88.501400 11.583900 -82.577100 -5.348130 -0.000001 -0.000004 -60.784800 34.589000 -12.148800 -24.328900 0.000322 -0.000009 1.305360 3.683490 -19.543700 -22.291500 -0.000108 -0.000004 12.323600 5.432820 -4.035950 -2.192480 -6.469440 -0.000000 -174.576000 -14.599100 -1.191360 39.081100 -0.000007 -0.000012 -0.188073 0.334241 29.366200 40.985400 -0.000006 -0.000013 -0.132433 6.789720 -70.170100 11.754300 -0.000000 0.000003 -0.000096 -0.000995 -16.615700 -2.192510 6.469440 -0.000001 173.890000 24.144700 -179.114000 -39.081100 -0.002282 -0.040193 -0.208665 0.384267 28.882300 -40.985400 0.000008 0.000006 3.753890 13.761900 -71.709600 -11.754300 -0.000006 -0.000006 -0.001511 -0.022412 -17.484400
0.000000 0.000000 0.000000 0.000000 0.000000 -0.000000 -1.517520 90.890700 1.027490 90.100200 -2.327880 7.622840 15.735700 0.000005 -0.000001 84.970500 82.919200 -84.598700 8.984550 -0.406207 -0.000000 6.346230 -1.242500 0.811694 16.377300 -0.000001 -0.000001 1.087560 -4.561090 3.719250 6.456720 -0.000001 -0.000000 -10.465900 -3.862030 5.097710 12.994200 -0.242716 4.980390 -92.096800 7.373300 -74.076900 5.348090 -0.000007 -0.000001 -58.012600 34.543500 -18.496300 24.328600 0.000019 0.000005 10.402500 22.353700 -25.765900 22.291600 -0.000001 0.000005 7.222220 5.357280 -1.597190 12.994500 -0.242716 -4.980390 88.483900 11.589300 -82.494600 -5.348130 -0.000001 -0.000004 -60.866900 34.650600 -12.241700 -24.328900 0.000322 -0.000009 1.246250 3.453120 -19.874700 -22.291500 -0.000108 -0.000004 12.295800 5.434770 -4.103450 -2.192480 -6.469440 -0.000000 -174.564000 -14.406500 -1.048370 39.081100 -0.000007 -0.000012 -0.191168 0.339449 29.387300 40.985400 -0.000006 -0.000013 -0.184535 6.759570 -70.210700 11.754300 -0.000000 0.000003 -0.000089 -0.000929 -16.613300 -2.192510 6.469440 -0.000001 173.792000 24.201400 -178.916000 -39.081100 -0.002282 -0.040193 -0.210279 0.386443 28.929300 -40.985400 0.000008 0.000006 3.764030 13.687100 -71.811200 -11.754300 -0.000006 -0.000006 -0.001492 -0.022172 -17.474700
0.000000 0.000000 0.000000 0.000000 0.000000 -0.000000 -1.589010 90.874600 1.071320 90.110300 -2.093810 7.736460 15.735700 0.000005 -0.000001 84.935900 82.896600 -84.540800 8.984550 -0.406207 -0.000000 6.390920 -1.255080 0.859476 16.377300 -0.000001 -0.000001 1.501190 -4.964920 3.790440 6.456720 -0.000001 -0.000000 -9.993110 -4.493750 5.481730 12.994200 -0.242716 4.980390 -92.140800 7.482920 -73.984500 5.348090 -0.000007 -0.000001 -56.206200 31.543600 -20.041400 24.328600 0.000019 0.000005 11.204800 22.207500 -27.659100 22.291600 -0.000001 0.000005 7.242170 5.352880 -1.463820 12.994500 -0.242716 -4.980390 88.458300 11.609100 -82.381900 -5.348130 -0.000001 -0.000004 -60.865800 34.906900 -12.253900 -24.328900 0.000322 -0.000009 1.178260 3.197510 -20.257400 -22.291500 -0.000108 -0.000004 12.231700 5.434640 -4.099220 -2.192480 -6.469440 -0.000000 -174.524000 -14.169900 -0.963405 39.081100 -0.000007 -0.000012 -0.192143 0.340432 29.441000 40.985400 -0.000006 -0.000013 -0.226557 6.793680 -70.242100 11.754300 -0.000000 0.000003 -0.000100 -0.001031 -16.617100 -2.192510 6.469440 -0.000001 173.754000 24.297000 -178.740000 -39.081100 -0.002282 -0.040193 -0.211376 0.387784 28.969500 -40.985400 0.000008 0.000006 3.774050 13.542700 -71.896200 -11.754300 -0.000006 -0.000006 -0.001416 -0.021156 -17.433400
0.000000 0.000000 0.000000 0.000000 0.000000 -0.000000 -1.670930 90.863600 1.106660 90.175100 -1.819280 7.840050 15.735700 0.000005 -0.000001 84.929300 82.896600 -84.528100 8.984550 -0.406207 -0.000000 6.390950 -1.256780 0.871768 16.377300 -0.000001 -0.000001 2.010510 -5.372180 3.825060 6.456720 -0.000001 -0.000000 -9.379540 -5.150190 5.968130 12.994200 -0.242716 4.980390 -92.139900 7.441980 -73.908000 5.348090 -0.000007 -0.000001 -54.228500 28.219200 -21.975900 24.328600 0.000019 0.000005 11.968600 21.791400 -29.727900 22.291600 -0.000001 0.000005 7.491040 5.345950 -1.256150 12.994500 -0.242716 -4.980390 88.425900 11.665400 -82.260600 -5.348130 -0.000001 -0.000004 -60.784100 35.231100 -12.243400 -24.328900 0.000322 -0.000009 1.206650 3.245470 -20.424000 -22.291500 -0.000108 -0.000004 12.167800 5.436680 -4.170250 -2.192480 -6.469440 -0.000000 -174.516000 -14.010900 -0.869033 39.081100 -0.000007 -0.000012 -0.194048 0.343860 29.437300 40.985400 -0.000006 -0.000013 -0.253367 6.924210 -70.231700 11.754300 -0.000000 0.000003 -0.000091 -0.000950 -16.614100 -2.192510 6.469440 -0.000001 173.658000 24.432400 -178.571000 -39.081100 -0.002282 -0.040193 -0.213689 0.391270 29.012400 -40.985400 0.000008 0.000006 3.792960 13.414100 -71.987900 -11.754300 -0.000006 -0.000006 -0.001404 -0.020983 -17.426300
0.000000 0.000000 0.000000 0.000000 0.000000 -0.000000 -1.774720 90.853100 1.107200 90.205200 -1.545820 7.885880 15.735700 0.000005 -0.000001 84.885300 82.928600 -84.446400 8.984550 -0.406207 -0.000000 6.326550 -1.262650 0.946675 16.377300 -0.000001 -0.000001 2.560560 -5.783340 3.925300 6.456720 -0.000001 -0.000000 -8.571680 -5.781300 6.299250 12.994200 -0.242716 4.980390 -92.137200 7.402890 -73.847000 5.348090 -0.000007 -0.000001 -51.945300 24.761100 -24.285800 24.328600 0.000019 0.000005 12.695300 21.170800 -31.954200 22.291600 -0.000001 0.000005 7.556110 5.342540 -1.154700 12.994500 -0.242716 -4.980390 88.395200 11.716800 -82.144800 -5.348130 -0.000001 -0.000004 -60.704600 35.494500 -12.179100 -24.328900 0.000322 -0.000009 1.226590 3.288270 -20.485900 -22.291500 -0.000108 -0.000004 12.099900 5.436740 -4.171890 -2.192480 -6.469440 -0.000000 -174.480000 -13.847500 -0.877566 39.081100 -0.000007 -0.000012 -0.194871 0.344873 29.469000 40.985400 -0.000006 -0.000013 -0.283250 7.078800 -70.211800 11.754300 -0.000000 0.000003 -0.000096 -0.000994 -16.615700 -2.192510 6.469440 -0.000001 173.630000 24.653000 -178.481000 -39.081100 -0.002282 -0.040193 -0.214806 0.392616 29.053800 -40.985400 0.000008 0.000006 3.849880 13.344900 -72.065100 -11.754300 -0.000006 -0.000006 -0.001373 -0.020574 -17.409700
0.000000 0.000000 0.000000 0.000000 0.000000 -0.000000 -1.883160 90.846900 1.104440 90.233100 -1.271240 7.933160 15.735700 0.000005 -0.000001 84.833700 82.965500 -84.347700 8.984550 -0.406207 -0.000000 6.252480 -1.269660 1.040260 16.377300 -0.000001 -0.000001 3.111690 -6.165250 4.055280 6.456720 -0.000001 -0.000000 -7.628340 -6.381060 6.570470 12.994200 -0.242716 4.980390 -92.114400 7.336200 -73.873600 5.348090 -0.000007 -0.000001 -49.724100 20.870800 -26.741100 24.328600 0.000019 0.000005 13.604700 20.716300 -34.377900 22.291600 -0.000001 0.000005 7.416200 5.342450 -1.151980 12.994500 -0.242716 -4.980390 88.363100 11.773100 -82.027300 -5.348130 -0.000001 -0.000004 -60.678300 35.531400 -12.100000 -24.328900 0.000322 -0.000009 1.241580 3.359270 -20.313700 -22.291500 -0.000108 -0.000004 12.204700 5.437010 -4.181380 -2.192480 -6.469440 -0.000000 -174.438000 -13.691300 -0.877981 39.081100 -0.000007 -0.000012 -0.196803 0.348144 29.479400 40.985400 -0.000006 -0.000013 -0.328807 7.199060 -70.174100 11.754300 -0.000000 0.000003 -0.000090 -0.000937 -16.613600 -2.192510 6.469440 -0.000001 173.615000 24.914900 -178.395000 -39.081100 -0.002282 -0.040193 -0.210487 0.384399 29.081700 -40.985400 0.000008 0.000006 3.919070 13.277400 -72.126200 -11.754300 -0.000006 -0.000006 -0.001330 -0.019989 -17.386000
0.000000 0.000000 0.000000 0.000000 0.000000 -0.000000 -1.989680 90.839700 1.104100 90.264100 -1.044230 8.044600 15.735700 0.000005 -0.000001 84.781600 82.993300 -84.254800 8.984550 -0.406207 -0.000000 6.196650 -1.278200 1.121560 16.377300 -0.000001 -0.000001 3.776830 -6.525490 4.234180 6.456720 -0.000001 -0.000000 -6.718610 -6.913440 6.870770 12.994200 -0.242716 4.980390 -92.065500 7.150180 -73.840900 5.348090 -0.000007 -0.000001 -47.587000 16.956400 -29.338100 24.328600 0.000019 0.000005 14.564100 20.149700 -37.024400 22.291600 -0.000001 0.000005 7.782470 5.329610 -0.775314 12.994500 -0.242716 -4.980390 88.326600 11.849900 -81.903000 -5.348130 -0.000001 -0.000004 -60.703100 35.370300 -11.964600 -24.328900 0.000322 -0.000009 1.261710 3.467420 -20.025000 -22.291500 -0.000108 -0.000004 12.200100 5.436570 -4.166210 -2.192480 -6.469440 -0.000000 -174.371000 -13.573300 -0.795767 39.081100 -0.000007 -0.000012 -0.198069 0.350332 29.483000 40.985400 -0.000006 -0.000013 -0.371325 7.342930 -70.142300 11.754300 -0.000000 0.000003 -0.000092 -0.000961 -16.614500 -2.192510 6.469440 -0.000001 173.558000 25.083500 -178.232000 -39.081100 -0.002282 -0.040193 -0.211379 0.385646 29.104300 -40.985400 0.000008 0.000006 3.990680 13.263300 -72.195300 -11.754300 -0.000006 -0.000006 -0.001292 -0.019478 -17.365200
